<svg width="20" height="20" viewBox="0 0 20 20" fill="none" xmlns="http://www.w3.org/2000/svg">
<path d="M4.38987 4C4.38944 4 4.38897 4 4.38855 4C4.24084 4 4.10191 4.05758 3.997 4.16222C3.89094 4.26802 3.83252 4.4089 3.83252 4.55887V12.939C3.83252 13.2464 4.08351 13.497 4.39207 13.4978C5.69292 13.5009 7.87235 13.772 9.37585 15.3454V6.57529C9.37585 6.47112 9.34924 6.37326 9.29902 6.29228C8.06502 4.30499 5.69365 4.00305 4.38987 4Z" fill="white"/>
<path d="M15.7863 12.9391V4.55887C15.7863 4.4089 15.7279 4.26802 15.6218 4.16222C15.5169 4.05758 15.3779 4 15.2303 4C15.2299 4 15.2294 4 15.229 4C13.9252 4.0031 11.5539 4.30504 10.3198 6.29233C10.2696 6.37331 10.243 6.47117 10.243 6.57534V15.3454C11.7465 13.772 13.926 13.5009 15.2268 13.4978C15.5353 13.497 15.7863 13.2464 15.7863 12.9391Z" fill="white"/>
<path d="M17.0589 5.93259H16.6536V12.939C16.6536 13.7237 16.0144 14.3635 15.2285 14.3654C14.1251 14.368 12.3058 14.5838 11.0173 15.8033C13.2458 15.2577 15.5949 15.6123 16.9338 15.9174C17.1009 15.9555 17.2737 15.9162 17.4076 15.8094C17.5411 15.7029 17.6176 15.5438 17.6176 15.3729V6.49135C17.6177 6.18326 17.3669 5.93259 17.0589 5.93259Z" fill="white"/>
<path d="M2.96398 12.939V5.93259H2.55877C2.25072 5.93259 2 6.18326 2 6.49135V15.3728C2 15.5437 2.07656 15.7028 2.21002 15.8093C2.34385 15.916 2.51644 15.9555 2.68387 15.9173C4.02267 15.6121 6.3719 15.2575 8.60023 15.8031C7.3118 14.5837 5.49247 14.368 4.38908 14.3653C3.60331 14.3635 2.96398 13.7237 2.96398 12.939Z" fill="white"/>
</svg>
