<svg width="24" height="24" viewBox="0 0 24 24" fill="none" xmlns="http://www.w3.org/2000/svg">
<path fill-rule="evenodd" clip-rule="evenodd" d="M6.51185 6.51228C6.88736 6.13678 7.49617 6.13678 7.87167 6.51228L11.9995 10.6401L16.1272 6.51228C16.5027 6.13678 17.1116 6.13678 17.4871 6.51228C17.8626 6.88778 17.8626 7.4966 17.4871 7.8721L13.3593 11.9999L17.4871 16.1277C17.8626 16.5032 17.8626 17.112 17.4871 17.4875C17.1116 17.863 16.5027 17.863 16.1272 17.4875L11.9995 13.3597L7.87167 17.4875C7.49617 17.863 6.88736 17.863 6.51185 17.4875C6.13635 17.112 6.13635 16.5032 6.51185 16.1277L10.6396 11.9999L6.51185 7.8721C6.13635 7.4966 6.13635 6.88778 6.51185 6.51228Z" fill="#FF5069" stroke="#FF5069" stroke-width="2" stroke-linecap="round" stroke-linejoin="round"/>
</svg>
