<svg width="32" height="32" viewBox="0 0 32 32" fill="none" xmlns="http://www.w3.org/2000/svg">
<rect width="32" height="32" rx="16" fill="#FFDBE0"/>
<path d="M10.1403 17.0426H12.8156C13.9977 17.0426 14.9559 18.0009 14.9559 19.1829V21.8582C14.9559 23.0403 13.9977 23.9985 12.8156 23.9985H10.1403C8.95826 23.9985 8 23.0403 8 21.8582V19.1829C8 18.0008 8.95826 17.0426 10.1403 17.0426Z" fill="#FF5069"/>
<path d="M10.1403 8H12.8156C13.9977 8 14.9559 8.95826 14.9559 10.1403V12.8156C14.9559 13.9977 13.9977 14.9559 12.8156 14.9559H10.1403C8.95826 14.9559 8 13.9977 8 12.8156V10.1403C8 8.95826 8.95826 8 10.1403 8Z" fill="#FF5069"/>
<path d="M23.055 17.4086C22.7019 17.1694 22.2851 17.0419 21.8586 17.0426H19.1833C18.0012 17.0426 17.043 18.0009 17.043 19.1829V21.8582C17.043 23.0403 18.0012 23.9985 19.1833 23.9985H21.8586C23.0406 23.9985 23.9989 23.0403 23.9989 21.8582V19.1829C23.9988 18.4713 23.6451 17.8063 23.055 17.4086Z" fill="#FF5069"/>
<path d="M23.055 8.36599C22.7019 8.12681 22.2851 7.9993 21.8586 8H19.1833C18.0012 8 17.043 8.95826 17.043 10.1403V12.8156C17.043 13.9977 18.0012 14.9559 19.1833 14.9559H21.8586C23.0406 14.9559 23.9989 13.9977 23.9989 12.8156V10.1403C23.9988 9.42874 23.6451 8.76373 23.055 8.36599Z" fill="#FF5069"/>
</svg>
