<svg width="19" height="12" viewBox="0 0 19 12" fill="none" xmlns="http://www.w3.org/2000/svg">
<path d="M16.4083 2.11081C14.0283 -1.79946 10.443 0.920961 10.443 0.920961C10.2104 1.0967 9.78168 1.24119 9.49036 1.24186L8.53001 1.24253C8.23868 1.24287 7.80992 1.09838 7.57773 0.922641C7.57773 0.922641 3.99206 -1.79845 1.6117 2.11182C-0.767995 6.02073 0.191005 10.2778 0.191005 10.2778C0.359015 11.3201 0.912776 12.0157 1.9578 11.9283C2.9998 11.8413 5.26155 9.12119 5.26155 9.12119C5.44837 8.89706 5.83984 8.71393 6.13049 8.71393L11.8879 8.71292C12.1789 8.71292 12.57 8.89606 12.7565 9.12018C12.7565 9.12018 15.0186 11.8403 16.0622 11.9273C17.1059 12.0147 17.661 11.3184 17.828 10.2768C17.828 10.2768 18.7884 6.0204 16.4083 2.11081ZM6.84622 5.29359H5.61168V6.48343C5.61168 6.48343 5.35025 6.68303 4.94569 6.67799C4.54179 6.67194 4.359 6.46025 4.359 6.46025V5.29392H3.19301C3.19301 5.29392 3.04751 5.14473 3.00853 4.75192C2.97023 4.35912 3.16949 4.04158 3.16949 4.04158H4.40436V2.80704C4.40436 2.80704 4.65839 2.67095 5.02364 2.68137C5.38923 2.69279 5.65704 2.83023 5.65704 2.83023L5.652 4.04124H6.81799C6.81799 4.04124 7.02162 4.30267 7.03842 4.61852C7.05522 4.93472 6.84622 5.29359 6.84622 5.29359ZM12.5088 6.64976C11.9682 6.64976 11.5323 6.2126 11.5323 5.67262C11.5323 5.13163 11.9682 4.69547 12.5088 4.69547C13.0471 4.69547 13.4863 5.13163 13.4863 5.67262C13.4863 6.21294 13.0471 6.64976 12.5088 6.64976ZM12.5088 3.96127C11.9682 3.96127 11.5323 3.52444 11.5323 2.98446C11.5323 2.44347 11.9682 2.00731 12.5088 2.00731C13.0471 2.00731 13.4863 2.44347 13.4863 2.98446C13.4863 3.52478 13.0471 3.96127 12.5088 3.96127ZM14.9423 5.40447C14.4016 5.40447 13.9658 4.96765 13.9658 4.42733C13.9658 3.88667 14.4016 3.45018 14.9423 3.45018C15.4806 3.45018 15.9198 3.88667 15.9198 4.42733C15.9198 4.96765 15.4806 5.40447 14.9423 5.40447Z" fill="#FF5069"/>
</svg>
