<svg width="30" height="30" viewBox="0 0 30 30" fill="none" xmlns="http://www.w3.org/2000/svg">
<g clip-path="url(#clip0_1_216)">
<path d="M6.64863 18.1294L5.60437 22.0277L1.78764 22.1085C0.646992 19.9928 0 17.5723 0 15C0 12.5126 0.604922 10.167 1.67719 8.10164H1.67801L5.07598 8.72461L6.56449 12.1022C6.25295 13.0104 6.08314 13.9854 6.08314 15C6.08326 16.1011 6.28271 17.1561 6.64863 18.1294Z" fill="#FBBB00"/>
<path d="M29.7379 12.1978C29.9101 13.1052 29.9999 14.0423 29.9999 15C29.9999 16.0739 29.887 17.1214 29.6719 18.1319C28.9417 21.5704 27.0338 24.5728 24.3906 26.6975L24.3898 26.6967L20.1099 26.4783L19.5042 22.697C21.258 21.6684 22.6286 20.0588 23.3506 18.1319H15.3297V12.1978H23.4676H29.7379Z" fill="#518EF8"/>
<path d="M24.3898 26.6967L24.3906 26.6975C21.82 28.7637 18.5546 30 15 30C9.2876 30 4.32113 26.8072 1.7876 22.1085L6.64859 18.1294C7.91533 21.5102 11.1766 23.9168 15 23.9168C16.6433 23.9168 18.1829 23.4725 19.5041 22.697L24.3898 26.6967Z" fill="#28B446"/>
<path d="M24.5745 3.45328L19.7152 7.43156C18.3479 6.57691 16.7316 6.0832 15.0001 6.0832C11.0902 6.0832 7.76789 8.60021 6.56461 12.1022L1.67807 8.10164H1.67725C4.17369 3.28846 9.20279 0 15.0001 0C18.6396 0 21.9767 1.29645 24.5745 3.45328Z" fill="#F14336"/>
</g>
<defs>
<clipPath id="clip0_1_216">
<rect width="30" height="30" fill="white"/>
</clipPath>
</defs>
</svg>
