<svg width="19" height="16" viewBox="0 0 19 16" fill="none" xmlns="http://www.w3.org/2000/svg">
<path d="M12.2437 8.55819C11.4199 7.27307 10.0169 6.50572 8.49057 6.50572C6.96424 6.50572 5.56124 7.27307 4.7376 8.55819L2.75259 11.6548C2.42325 12.1686 2.27129 12.7622 2.31305 13.371C2.35481 13.9799 2.58652 14.547 2.98305 15.0113C3.37986 15.4751 3.90418 15.7922 4.49932 15.9282C5.09446 16.0643 5.70455 16.0062 6.26351 15.7605L6.30094 15.7439C7.70743 15.138 9.31463 15.1436 10.7175 15.7605C11.0794 15.9196 11.4628 16 11.8497 16C12.06 16 12.2716 15.9761 12.4813 15.9284C13.0764 15.7925 13.6007 15.4754 13.9977 15.0114C14.3943 14.5476 14.6262 13.9804 14.6681 13.3713C14.71 12.7622 14.558 12.1687 14.2287 11.6547L12.2437 8.55819Z" fill="#FF5069"/>
<path d="M3.28578 8.55403C3.87631 8.32721 4.32494 7.85135 4.54897 7.21403C4.76225 6.60757 4.74479 5.9229 4.49967 5.286C4.2544 4.64952 3.80829 4.12994 3.24346 3.82281C2.65014 3.50031 1.99829 3.44779 1.40874 3.67503C0.222651 4.13106 -0.321648 5.59677 0.195555 6.94306C0.608703 8.01462 1.5723 8.69105 2.5465 8.69105C2.79526 8.69105 3.04471 8.64691 3.28578 8.55403Z" fill="#FF5069"/>
<path d="M7.13876 6.12808C8.62151 6.12808 9.82786 4.75371 9.82786 3.06439C9.82786 1.37464 8.62151 0 7.13876 0C5.65615 0 4.44995 1.37464 4.44995 3.06439C4.44995 4.75371 5.65615 6.12808 7.13876 6.12808Z" fill="#FF5069"/>
<path d="M11.7802 6.88058H11.7803C12.0084 6.95628 12.2411 6.99245 12.4728 6.99245C13.5542 6.99245 14.608 6.2054 15.0101 4.99585C15.2417 4.29959 15.2264 3.56338 14.9672 2.92299C14.696 2.25257 14.1933 1.76595 13.5516 1.55267C12.9099 1.3394 12.2158 1.42837 11.5972 1.80296C11.0063 2.1608 10.5535 2.74142 10.3222 3.43768C9.83402 4.90646 10.4881 6.45095 11.7802 6.88058Z" fill="#FF5069"/>
<path d="M17.4447 6.52317L17.4443 6.52275C16.4218 5.76741 14.8925 6.0948 14.0351 7.25295C13.1785 8.41166 13.3124 9.96942 14.3334 10.7253C14.7058 11.0012 15.1457 11.133 15.596 11.133C16.3808 11.133 17.1974 10.7324 17.7432 9.99582C18.5997 8.8371 18.4659 7.27935 17.4447 6.52317Z" fill="#FF5069"/>
</svg>
