<svg width="16" height="18" viewBox="0 0 16 18" fill="none" xmlns="http://www.w3.org/2000/svg">
<path d="M7.66484 0C5.97178 0 4.59924 1.40656 4.59924 3.09966C4.59924 4.79275 5.97174 6.16525 7.66484 6.16525C9.35793 6.16525 10.7304 4.79275 10.7304 3.09966C10.7304 1.40656 9.3579 0 7.66484 0Z" fill="#FF5069"/>
<path d="M9.94884 10.5422C8.61711 10.5422 8.16156 12.1314 8.15707 12.1473C8.1557 12.1522 8.15053 12.1544 8.14903 12.1592C8.14903 12.1591 8.14917 12.1591 8.14917 12.1591C8.08326 12.3723 7.89016 12.52 7.6661 12.521C7.66558 12.521 7.66511 12.521 7.66409 12.521C7.43607 12.521 7.23548 12.3688 7.1726 12.1493C7.15414 12.0834 6.69958 10.5422 5.38035 10.5422C4.36898 10.5422 3.60657 11.3884 3.60657 12.5111C3.60657 13.8473 4.81155 15.1883 6.80838 16.8738C6.97882 17.0174 7.15411 17.1654 7.33385 17.3181C7.52433 17.4799 7.80432 17.4804 7.99486 17.3187C8.17447 17.1662 8.34945 17.0185 8.51932 16.8748C10.0385 15.5932 11.7226 13.9458 11.7226 12.511C11.7226 11.3884 10.9602 10.5422 9.94884 10.5422Z" fill="#FF5069"/>
<path d="M10.2697 6.21624C9.56466 6.81917 8.66541 7.18701 7.66399 7.18701C6.66256 7.18701 5.76332 6.81914 5.05823 6.21624C2.19701 6.50233 0 8.90712 0 11.8195V12.5348C0 14.1902 0.643775 15.7434 1.80873 16.9083C1.80873 16.9185 1.80873 16.9185 1.81895 16.9185C2.13573 17.2353 2.57513 17.4192 3.02475 17.4295C3.77187 17.4108 4.37624 16.8439 4.47577 16.1149C3.52332 15.1364 2.58409 13.8826 2.58409 12.511C2.58409 10.7656 3.91763 9.52023 5.37501 9.52023C5.376 9.52023 5.37675 9.52041 5.37777 9.52041C5.37845 9.52041 5.37906 9.52023 5.37978 9.52023C6.34145 9.52023 7.14498 10.0492 7.6645 10.823C8.18885 10.0418 8.97058 9.52023 9.94823 9.52023C9.94891 9.52023 9.94952 9.52041 9.95024 9.52041C9.95123 9.52041 9.95198 9.52023 9.953 9.52023C11.5012 9.52023 12.7439 10.8482 12.7439 12.511C12.6958 12.6404 12.9512 13.9004 10.8509 16.1012C10.9447 16.8367 11.5515 17.4106 12.3033 17.4295C12.7529 17.4192 13.1923 17.2353 13.5091 16.9185C13.5193 16.9185 13.5193 16.9185 13.5193 16.9083C14.6842 15.7434 15.328 14.1902 15.328 12.5348V11.8195C15.328 8.90712 13.1309 6.50233 10.2697 6.21624Z" fill="#FF5069"/>
</svg>
