<svg width="176" height="126" viewBox="0 0 176 126" fill="none" xmlns="http://www.w3.org/2000/svg">
<path d="M124.05 122.275C124.05 124.158 108.272 125.689 88.811 125.689C69.3504 125.689 53.5723 124.164 53.5723 122.275C53.5723 120.392 69.3504 118.861 88.811 118.861C108.272 118.861 124.05 120.392 124.05 122.275Z" fill="#EEEEEE"/>
<path d="M131.235 40.6729C131.217 40.226 131.193 39.7911 131.157 39.3561C131.038 37.7532 130.824 36.1683 130.526 34.6012C130.448 34.1841 130.359 33.7729 130.269 33.3558C129.823 31.3538 129.233 29.3875 128.512 27.4807C128.345 27.0398 128.172 26.5989 127.987 26.1699C121.767 11.2676 107.246 0 88.81 0C71.2323 0 57.2059 10.2487 50.5562 24.1201C50.3715 24.4836 50.2047 24.853 50.0438 25.2284C48.8223 27.9634 47.8868 30.8235 47.2731 33.767C47.1777 34.1781 47.0943 34.5952 47.0288 35.0183C46.6891 36.8475 46.4806 38.7006 46.4031 40.5835C46.3793 40.9828 46.3674 41.3701 46.3614 41.7752C46.3555 42.0076 46.3555 42.234 46.3555 42.4724C46.3555 49.5332 48.149 56.7788 52.0935 63.6133L85.5745 121.608C87.0165 124.104 90.6154 124.104 92.0574 121.608L125.538 63.6133C129.817 56.1949 131.568 48.2939 131.235 40.6729ZM90.2817 66.6283C77.6139 65.8239 67.5678 55.2892 67.5678 42.4068C67.5678 41.5786 67.6095 40.7683 67.693 39.9639C67.7347 39.5587 67.7823 39.1654 67.8419 38.7662C68.1756 36.5556 68.8072 34.4582 69.6831 32.4859C69.8619 32.0867 70.0466 31.6934 70.2492 31.3121C70.7676 30.2932 71.3634 29.316 72.0248 28.3983C72.281 28.0289 72.5492 27.6714 72.8292 27.3199C76.9883 22.0942 83.2507 18.6264 90.3175 18.1914C97.0566 18.6025 103.051 21.7665 107.186 26.5691C107.472 26.8968 107.74 27.2245 108.002 27.5642C108.914 28.732 109.718 29.9893 110.398 31.318C110.6 31.7053 110.791 32.0926 110.964 32.4978C111.321 33.3022 111.637 34.1245 111.911 34.9706C112.042 35.3698 112.155 35.775 112.263 36.1802C112.793 38.1703 113.073 40.2558 113.073 42.4068C113.079 55.313 102.997 65.8656 90.2817 66.6283Z" fill="#FF5069"/>
<path d="M125.54 63.6073L92.0527 121.596C90.6108 124.092 87.0118 124.092 85.5699 121.596L82.5012 116.269L116.661 72.4378C134.358 49.1161 131.558 20.6701 108.856 6.39946C102.772 2.58004 95.5623 0.238342 87.5838 0.0178767C87.989 0.0119181 88.4061 0 88.8113 0C121.452 0 141.854 35.34 125.54 63.6073Z" fill="#EF354F"/>
<path d="M90.2772 66.6281C90.2057 66.6341 90.1283 66.64 90.0567 66.64C89.8482 66.646 89.6456 66.6579 89.4371 66.6639C89.2285 66.6698 89.02 66.6698 88.8055 66.6698C82.1021 66.6698 76.0363 63.9527 71.6449 59.5613C67.2535 55.1699 64.5364 49.1041 64.5364 42.4007C64.5364 29 75.3988 18.1376 88.7995 18.1376C89.0498 18.1376 89.306 18.1436 89.5562 18.1495C89.8065 18.1555 90.0627 18.1674 90.307 18.1853C77.6213 18.9599 67.5514 29.5065 67.5514 42.4007C67.5693 55.289 77.6094 65.8237 90.2772 66.6281Z" fill="#EF354F"/>
<path d="M38.1895 95.8906C38.1895 96.8201 30.4315 97.5709 20.8681 97.5709C11.3046 97.5709 3.54663 96.8201 3.54663 95.8906C3.54663 94.9611 11.3046 94.2103 20.8681 94.2103C30.4315 94.2103 38.1895 94.967 38.1895 95.8906Z" fill="#EEEEEE"/>
<path d="M21.5816 68.541C21.5459 68.541 21.5101 68.5469 21.4743 68.5469C21.3731 68.5469 21.2718 68.5529 21.1705 68.5588C21.0692 68.5588 20.9679 68.5648 20.8606 68.5648C17.5656 68.5648 13.9309 67.8796 11.7739 65.7226C9.61688 63.5656 6.96533 59.9309 6.96533 56.6358C6.96533 50.0457 14.2764 44.7068 20.8606 44.7068C20.9857 44.7068 21.1109 44.7068 21.236 44.7128C21.3611 44.7128 21.4863 44.7188 21.6054 44.7307C15.3669 45.112 10.4213 50.296 10.4213 56.6358C10.4213 62.9638 15.3549 68.1417 21.5816 68.541Z" fill="#F54847"/>
<path d="M41.7216 55.7778C41.7157 55.5573 41.6978 55.3428 41.6859 55.1283C41.6263 54.3418 41.525 53.5612 41.376 52.7926C41.3343 52.59 41.2926 52.3814 41.2509 52.1789C41.0304 51.1957 40.7444 50.2304 40.3869 49.289C40.3035 49.0745 40.2201 48.854 40.1307 48.6454C37.074 41.3224 29.9356 35.781 20.8727 35.781C12.2329 35.781 5.33884 40.8219 2.06761 47.6385C1.97823 47.8172 1.89481 48.0019 1.81735 48.1866C1.21554 49.5333 0.756733 50.9395 0.452848 52.3814C0.40518 52.584 0.36347 52.7926 0.333678 52.9952C0.166839 53.8949 0.0655438 54.8066 0.0238341 55.7301C0.011917 55.9268 0.00595853 56.1174 0 56.3141C0 56.4273 0 56.5405 0 56.6537C0 60.1216 0.881862 63.6848 2.82434 67.0454L19.2818 95.5569C19.9909 96.7844 21.7605 96.7844 22.4696 95.5569L38.9271 67.0454C41.0245 63.4107 41.8825 59.5257 41.7216 55.7778ZM21.5877 68.535C15.3611 68.1418 10.4155 62.9638 10.4155 56.6299C10.4155 56.2247 10.4393 55.8255 10.4751 55.4263C10.4989 55.2237 10.5228 55.033 10.5466 54.8364C10.7075 53.7519 11.0233 52.7151 11.4523 51.7498C11.5417 51.5532 11.631 51.3625 11.7323 51.1719C11.9886 50.6713 12.2805 50.1887 12.6023 49.7359C12.7274 49.5511 12.8585 49.3783 12.9956 49.2056C15.0393 46.6374 18.1199 44.9333 21.5937 44.7188C24.9067 44.9214 27.8502 46.4765 29.888 48.8361C30.025 48.997 30.1621 49.1579 30.2872 49.3247C30.7341 49.8967 31.1333 50.5164 31.467 51.1719C31.5683 51.3625 31.6577 51.5532 31.747 51.7498C31.9258 52.1431 32.0807 52.5483 32.2118 52.9654C32.2773 53.162 32.331 53.3586 32.3846 53.5612C32.6468 54.5384 32.7838 55.5633 32.7838 56.6239C32.7898 62.9757 27.8382 68.1656 21.5877 68.535Z" fill="#E6E6E6"/>
<path d="M38.92 67.0513L22.4566 95.5569C21.7475 96.7844 19.9778 96.7844 19.2687 95.5569L17.7612 92.9351L34.5524 71.3891C43.2518 59.9249 41.8754 45.9402 30.7151 38.927C27.7239 37.0501 24.1786 35.9001 20.2579 35.7929C20.4604 35.7869 20.663 35.7869 20.8597 35.7869C36.906 35.7869 46.9401 53.156 38.92 67.0513Z" fill="#D9D9D9"/>
<path d="M21.5826 68.541C21.5468 68.541 21.5111 68.547 21.4753 68.547C21.374 68.547 21.2727 68.5529 21.1714 68.5589C21.0701 68.5589 20.9688 68.5589 20.8616 68.5589C17.5665 68.5589 14.5873 67.2242 12.4243 65.0672C10.2673 62.9102 8.93262 59.925 8.93262 56.6299C8.93262 50.0398 14.2715 44.7009 20.8616 44.7009C20.9867 44.7009 21.1118 44.7009 21.237 44.7069C21.3621 44.7069 21.4872 44.7128 21.6064 44.7248C15.3678 45.1061 10.4222 50.29 10.4222 56.6299C10.4222 62.9638 15.3559 68.1418 21.5826 68.541Z" fill="#D9D9D9"/>
<path d="M172.215 100.878C172.215 101.808 164.457 102.558 154.894 102.558C145.324 102.558 137.572 101.808 137.572 100.878C137.572 99.9485 145.33 99.1977 154.894 99.1977C164.457 99.2037 172.215 99.9544 172.215 100.878Z" fill="#EEEEEE"/>
<path d="M155.607 73.5224C155.571 73.5224 155.536 73.5284 155.5 73.5284C155.399 73.5284 155.297 73.5344 155.196 73.5403C155.095 73.5403 154.994 73.5463 154.886 73.5463C151.591 73.5463 147.956 72.861 145.8 70.7041C143.643 68.5471 140.991 64.9124 140.991 61.6173C140.991 55.0272 148.302 49.6883 154.886 49.6883C155.011 49.6883 155.137 49.6883 155.262 49.6943C155.387 49.6943 155.512 49.7002 155.631 49.7122C149.393 50.0935 144.447 55.2774 144.447 61.6173C144.441 67.9512 149.381 73.1292 155.607 73.5224Z" fill="#F54847"/>
<path d="M175.747 60.7653C175.741 60.5448 175.723 60.3303 175.712 60.1158C175.652 59.3293 175.551 58.5487 175.402 57.7801C175.36 57.5775 175.318 57.3689 175.277 57.1663C175.056 56.1832 174.77 55.2179 174.413 54.2764C174.329 54.0619 174.246 53.8415 174.156 53.6329C171.1 46.3099 163.961 40.7685 154.898 40.7685C146.258 40.7685 139.364 45.8094 136.093 52.6259C136.004 52.8047 135.92 52.9894 135.843 53.1741C135.241 54.5207 134.782 55.927 134.478 57.3689C134.431 57.5715 134.389 57.7801 134.359 57.9827C134.192 58.8824 134.091 59.794 134.049 60.7176C134.038 60.9143 134.032 61.1049 134.026 61.3015C134.026 61.4148 134.026 61.528 134.026 61.6412C134.026 65.1091 134.907 68.6722 136.85 72.0329L153.307 100.544C154.017 101.772 155.786 101.772 156.495 100.544L172.953 72.0329C175.044 68.3982 175.908 64.5132 175.747 60.7653ZM155.607 73.5225C149.381 73.1292 144.441 67.9513 144.441 61.6174C144.441 61.2122 144.465 60.813 144.501 60.4137C144.525 60.2111 144.548 60.0205 144.572 59.8238C144.733 58.7394 145.049 57.7026 145.478 56.7373C145.567 56.5407 145.657 56.35 145.758 56.1593C146.014 55.6588 146.306 55.1762 146.628 54.7233C146.753 54.5386 146.884 54.3658 147.021 54.193C149.065 51.6249 152.146 49.9208 155.619 49.7063C158.932 49.9088 161.876 51.464 163.914 53.8236C164.051 53.9845 164.188 54.1454 164.313 54.3122C164.76 54.8842 165.159 55.5039 165.493 56.1593C165.594 56.35 165.683 56.5407 165.773 56.7373C165.951 57.1306 166.106 57.5358 166.237 57.9529C166.303 58.1495 166.357 58.3461 166.41 58.5487C166.672 59.5259 166.809 60.5508 166.809 61.6114C166.815 67.9632 161.864 73.1471 155.607 73.5225Z" fill="#E6E6E6"/>
<path d="M172.941 72.0387L156.478 100.544C155.768 101.772 153.999 101.772 153.29 100.544L151.782 97.9225L168.573 76.3765C177.273 64.9123 175.896 50.9276 164.736 43.9144C161.745 42.0375 158.2 40.8875 154.279 40.7803C154.481 40.7743 154.684 40.7743 154.881 40.7743C170.933 40.7683 180.961 58.1434 172.941 72.0387Z" fill="#D9D9D9"/>
<path d="M155.608 73.5225C155.573 73.5225 155.537 73.5284 155.501 73.5284C155.4 73.5284 155.299 73.5344 155.197 73.5404C155.096 73.5404 154.995 73.5404 154.887 73.5404C151.592 73.5404 148.613 72.2056 146.45 70.0487C144.293 67.8917 142.958 64.9064 142.958 61.6114C142.958 55.0212 148.297 49.6824 154.887 49.6824C155.013 49.6824 155.138 49.6824 155.263 49.6884C155.388 49.6884 155.513 49.6943 155.632 49.7062C149.394 50.0876 144.448 55.2715 144.448 61.6114C144.442 67.9513 149.382 73.1292 155.608 73.5225Z" fill="#D9D9D9"/>
<path d="M133.934 109.452C133.934 109.911 130.115 110.281 125.396 110.281C120.677 110.281 116.857 109.911 116.857 109.452C116.857 108.994 120.677 108.624 125.396 108.624C130.115 108.624 133.934 108.994 133.934 109.452Z" fill="#EEEEEE"/>
<path d="M125.754 95.974C125.736 95.974 125.718 95.974 125.7 95.974C125.652 95.974 125.599 95.98 125.551 95.98C125.503 95.98 125.45 95.98 125.396 95.98C123.769 95.98 121.982 95.6463 120.921 94.5797C119.855 93.5131 118.55 91.7256 118.55 90.1049C118.55 86.8575 122.149 84.2298 125.396 84.2298C125.456 84.2298 125.521 84.2298 125.581 84.2298C125.64 84.2298 125.706 84.2357 125.766 84.2357C122.691 84.4264 120.254 86.9766 120.254 90.1049C120.254 93.2271 122.685 95.7774 125.754 95.974Z" fill="#F54847"/>
<path d="M135.674 89.6878C135.668 89.5805 135.662 89.4733 135.656 89.366C135.626 88.9787 135.573 88.5914 135.501 88.216C135.483 88.1147 135.459 88.0134 135.441 87.9121C135.334 87.4295 135.191 86.9528 135.018 86.4881C134.977 86.3808 134.935 86.2736 134.893 86.1723C133.386 82.5614 129.87 79.8324 125.401 79.8324C121.141 79.8324 117.745 82.3171 116.136 85.6777C116.094 85.7671 116.052 85.8565 116.011 85.9458C115.713 86.6072 115.486 87.3044 115.337 88.0134C115.314 88.1147 115.296 88.216 115.278 88.3173C115.194 88.7583 115.147 89.2111 115.129 89.664C115.123 89.7593 115.117 89.8546 115.117 89.95C115.117 90.0036 115.117 90.0632 115.117 90.1168C115.117 91.8269 115.552 93.5847 116.505 95.2352L124.615 109.285C124.966 109.887 125.836 109.887 126.182 109.285L134.291 95.2352C135.334 93.4476 135.757 91.5349 135.674 89.6878ZM125.753 95.974C122.684 95.7774 120.247 93.2272 120.247 90.1049C120.247 89.9023 120.259 89.7057 120.277 89.515C120.289 89.4137 120.301 89.3243 120.313 89.223C120.396 88.6868 120.545 88.1803 120.76 87.7036C120.801 87.6083 120.849 87.5129 120.897 87.4176C121.022 87.1733 121.165 86.9349 121.326 86.7085C121.385 86.6191 121.451 86.5298 121.522 86.4463C122.529 85.1831 124.049 84.343 125.759 84.2357C127.392 84.337 128.845 85.0997 129.846 86.2676C129.918 86.3451 129.978 86.4285 130.043 86.5119C130.264 86.7979 130.46 87.0958 130.621 87.4235C130.669 87.5189 130.716 87.6142 130.758 87.7096C130.847 87.9062 130.919 88.1028 130.99 88.3054C131.02 88.4008 131.05 88.502 131.074 88.5974C131.205 89.08 131.271 89.5865 131.271 90.1049C131.276 93.2331 128.833 95.7893 125.753 95.974Z" fill="#E6E6E6"/>
<path d="M134.297 95.2411L126.187 109.291C125.836 109.893 124.966 109.893 124.614 109.291L123.87 107.998L132.146 97.3803C136.43 91.7316 135.751 84.8375 130.257 81.3816C128.785 80.458 127.034 79.892 125.103 79.8383C125.204 79.8383 125.3 79.8324 125.401 79.8324C133.308 79.8324 138.248 88.3948 134.297 95.2411Z" fill="#D9D9D9"/>
<path d="M125.752 95.9741C125.734 95.9741 125.716 95.9741 125.698 95.9741C125.651 95.9741 125.597 95.98 125.549 95.98C125.496 95.98 125.448 95.98 125.394 95.98C123.774 95.98 122.302 95.3246 121.235 94.258C120.169 93.1914 119.513 91.7256 119.513 90.099C119.513 86.8516 122.147 84.2238 125.389 84.2238C125.448 84.2238 125.514 84.2238 125.573 84.2238C125.633 84.2238 125.698 84.2298 125.758 84.2298C122.683 84.4205 120.246 86.9707 120.246 90.099C120.252 93.2272 122.683 95.7774 125.752 95.9741Z" fill="#D9D9D9"/>
<path d="M59.0376 108.612C59.0376 109.071 55.2182 109.44 50.499 109.44C45.7799 109.44 41.9604 109.071 41.9604 108.612C41.9604 108.153 45.7799 107.784 50.499 107.784C55.2182 107.784 59.0376 108.153 59.0376 108.612Z" fill="#EEEEEE"/>
<path d="M50.8569 95.1337C50.8391 95.1337 50.8212 95.1337 50.8033 95.1337C50.7556 95.1337 50.702 95.1397 50.6543 95.1397C50.6067 95.1397 50.5531 95.1397 50.4994 95.1397C48.8727 95.1397 47.0852 94.806 46.0246 93.7394C44.958 92.6728 43.6531 90.8853 43.6531 89.2645C43.6531 86.0172 47.252 83.3894 50.4994 83.3894C50.559 83.3894 50.6246 83.3894 50.6841 83.3894C50.7437 83.3894 50.8093 83.3954 50.8689 83.3954C47.7943 83.5861 45.3572 86.1363 45.3572 89.2645C45.3513 92.3868 47.7883 94.9371 50.8569 95.1337Z" fill="#F54847"/>
<path d="M60.7771 88.8416C60.7712 88.7343 60.7652 88.627 60.7593 88.5198C60.7295 88.1325 60.6758 87.7452 60.6043 87.3698C60.5865 87.2685 60.5626 87.1672 60.5448 87.0659C60.4375 86.5833 60.2945 86.1066 60.1217 85.6418C60.08 85.5346 60.0383 85.4273 59.9966 85.326C58.4891 81.7152 54.9735 78.9861 50.5046 78.9861C46.2443 78.9861 42.8479 81.4708 41.2391 84.8315C41.1974 84.9208 41.1557 85.0102 41.114 85.0996C40.8161 85.761 40.5896 86.4522 40.4407 87.1672C40.4168 87.2685 40.399 87.3698 40.3811 87.4711C40.2977 87.912 40.25 88.3649 40.2321 88.8177C40.2262 88.9131 40.2202 89.0084 40.2202 89.1037C40.2202 89.1573 40.2202 89.2169 40.2202 89.2706C40.2202 90.9807 40.6552 92.7384 41.6086 94.3889L49.7181 108.439C50.0697 109.041 50.9396 109.041 51.2852 108.439L59.3948 94.3889C60.4315 92.6073 60.8546 90.6887 60.7771 88.8416ZM50.8562 95.1338C47.7875 94.9371 45.3505 92.3869 45.3505 89.2646C45.3505 89.062 45.3624 88.8654 45.3803 88.6747C45.3922 88.5734 45.4041 88.484 45.4161 88.3827C45.4995 87.8465 45.6484 87.34 45.8629 86.8633C45.9047 86.768 45.9523 86.6726 46 86.5773C46.1251 86.333 46.2681 86.0947 46.429 85.8682C46.4886 85.7789 46.5541 85.6895 46.6256 85.6061C47.6326 84.3429 49.152 83.5027 50.8621 83.3955C52.4948 83.4968 53.9487 84.2594 54.9497 85.4273C55.0212 85.5048 55.0808 85.5882 55.1463 85.6716C55.3668 85.9576 55.5634 86.2556 55.7243 86.5833C55.772 86.6786 55.8196 86.7739 55.8614 86.8693C55.9507 87.0659 56.0222 87.2625 56.0937 87.4651C56.1235 87.5605 56.1533 87.6618 56.1772 87.7571C56.3082 88.2397 56.3738 88.7462 56.3738 89.2646C56.3738 92.3928 53.9367 94.949 50.8562 95.1338Z" fill="#E6E6E6"/>
<path d="M59.3957 94.4009L51.2861 108.445C50.9346 109.047 50.0646 109.047 49.7131 108.445L48.9683 107.152L57.2447 96.534C61.5288 90.8853 60.8496 83.9913 55.3558 80.5354C53.884 79.6118 52.1322 79.0457 50.2017 78.9921C50.303 78.9921 50.3983 78.9861 50.4996 78.9861C58.4066 78.9921 63.3462 87.5545 59.3957 94.4009Z" fill="#D9D9D9"/>
<path d="M50.8553 95.1337C50.8374 95.1337 50.8195 95.1337 50.8017 95.1337C50.754 95.1337 50.7004 95.1397 50.6527 95.1397C50.5991 95.1397 50.5514 95.1397 50.4978 95.1397C48.877 95.1397 47.4053 94.4843 46.3387 93.4177C45.2721 92.3511 44.6167 90.8853 44.6167 89.2586C44.6167 86.0112 47.2504 83.3835 50.4918 83.3835C50.5514 83.3835 50.6169 83.3835 50.6765 83.3835C50.7361 83.3835 50.8017 83.3895 50.8612 83.3895C47.7866 83.5802 45.3496 86.1304 45.3496 89.2586C45.3496 92.3869 47.7866 94.9371 50.8553 95.1337Z" fill="#D9D9D9"/>
</svg>
