<svg width="220" height="82" viewBox="0 0 220 82" fill="none" xmlns="http://www.w3.org/2000/svg">
<path d="M81.9894 20.8566L76.013 19.3589L77.1716 20.821L73.6248 21.3301C73.4238 21.0756 73.0396 20.9513 72.5903 20.9157C72.5726 20.8743 72.5549 20.8329 72.5431 20.7974C72.0347 19.6431 71.4081 18.5717 70.746 17.5476C69.41 15.4995 67.8435 13.7059 66.2711 11.9893C65.4849 11.131 64.6928 10.2964 63.9302 9.44398C63.1676 8.59751 62.4287 7.73328 61.8021 6.81577C61.477 6.35998 61.211 5.87459 60.9627 5.38328L60.809 5.00444L60.7322 4.81502L60.6731 4.61968L60.5548 4.22308L60.4839 3.82057C60.2947 2.7314 60.6139 1.58304 61.2051 0.594502C60.8563 1.05029 60.5135 1.53568 60.3184 2.09803C60.1942 2.37032 60.1351 2.66037 60.0642 2.95634C60.0287 3.10432 60.0287 3.2523 60.011 3.40621C59.9933 3.55419 59.9814 3.7081 59.9873 3.862L59.9992 4.31779L60.0642 4.76767C60.0642 4.80318 60.076 4.83278 60.0819 4.8683L48.8267 20.8151C48.6021 20.827 48.3834 20.8388 48.1706 20.8566C48.7676 20.4304 48.342 19.3649 48.9508 19.1518C49.5834 18.9327 49.1577 18.181 49.1577 18.181C49.5479 18.0744 48.9568 16.9794 48.9568 16.9794C49.8375 16.9024 50.943 15.9316 50.3932 15.76C49.8435 15.5942 48.608 13.5935 49.0927 12.0544C49.5774 10.5154 48.7558 9.19536 48.7558 9.19536C50.7775 10.1129 51.1676 8.20683 51.1676 8.20683C49.4474 9.03554 48.7026 8.01741 48.7026 8.01741C50.2809 7.89902 50.2218 6.88089 49.944 5.71477C49.6661 4.54865 48.2592 4.74399 48.2592 4.74399C48.2592 4.74399 48.2001 3.72586 47.4907 2.66629C46.7814 1.60672 45.6523 2.37032 45.6523 2.37032C45.6523 2.37032 45.4868 0.724728 43.7193 0.150548C41.9518 -0.423632 41.1952 0.961504 41.1952 0.961504C41.1952 0.961504 39.0848 -0.73144 36.6139 0.375485C34.1429 1.48241 34.3557 3.42397 34.3557 3.42397C30.9626 3.128 31.0158 5.89827 31.0158 5.89827C29.9931 7.02295 31.3114 8.09436 31.3114 8.09436C31.3114 8.09436 29.6739 7.83983 29.4493 10.1247C29.2247 12.4096 30.6434 12.6641 30.6434 12.6641C29.5084 14.7241 31.5064 15.5232 31.5064 15.5232C31.2759 18.6427 33.8533 18.2935 33.8533 18.2935C34.2434 18.9446 33.8946 19.8799 33.7646 20.1817C30.9508 18.8025 27.1025 15.4581 25.4355 10.835C23.8453 6.43101 18.5488 9.32559 12.9803 17.0267C11.8571 18.5776 13.5537 20.531 14.9842 19.5602C14.3694 20.4126 13.7547 21.3538 13.134 22.3778C12.1763 23.9701 14.1034 25.7341 15.3566 24.4082L16.8818 22.7981L16.066 24.2543C15.2148 25.7696 16.9291 27.4389 18.2059 26.3379L19.6187 25.1244L19.1695 26.2846C18.5429 27.9125 20.4404 29.2798 21.5636 28.0072L22.0424 27.4626C21.8828 29.1082 23.8394 29.8895 24.6966 28.5221L24.9981 28.0368L24.933 29.1082C24.8621 30.2329 25.7902 30.9432 26.6473 30.7834C26.6119 31.0675 26.6119 31.3516 26.6591 31.6357C26.7951 32.4289 27.2503 33.1038 27.9183 33.6187C27.8591 33.8555 27.8119 34.0864 27.7823 34.3054C27.1261 38.9758 23.402 39.3191 21.735 42.0302C20.7123 43.6876 20.0739 45.8541 21.0729 48.0561C19.7606 49.6366 18.4246 51.7853 18.5369 53.8689C18.5369 53.8689 18.2296 52.3121 15.6345 51.1519C13.0394 49.9858 11.13 51.8978 9.7113 50.0805C8.29849 48.2633 6.53099 48.654 5.68567 50.2404C4.84034 51.8268 0.53688 53.1468 0.773334 54.5733C0.773334 54.5733 -0.444404 55.1594 0.176288 55.923C0.79698 56.6866 1.76053 55.8164 1.76053 55.8164C1.76053 55.8164 1.796 57.5745 3.12014 57.314C4.44428 57.0536 6.4305 54.236 8.87189 55.2245C11.3192 56.213 16.1428 63.7484 19.997 63.5175C23.3961 63.3163 29.5557 56.5267 31.0513 53.8275C32.0503 56.0295 34.1193 59.7351 37.0986 60.6822C37.0986 60.6822 35.3311 60.3803 33.0611 62.6592C30.7912 64.9382 32.0385 67.7321 29.5498 68.5017C27.0611 69.2712 26.7655 71.2956 28.0956 72.8287C29.4316 74.3618 29.0946 79.4466 30.6907 79.7781C30.6907 79.7781 30.8207 81.3053 31.8789 80.9501C32.937 80.6009 32.3991 79.2276 32.3991 79.2276C32.3991 79.2276 34.273 79.8965 34.5331 78.3929C34.7932 76.8894 32.6119 73.6515 34.6395 71.4554C36.6671 69.2593 46.5686 67.1876 47.875 63.0144C49.1814 58.8412 42.9804 47.4997 41.337 46.7183C46.208 43.4212 46.74 34.7612 46.74 34.7612C47.7213 33.8674 48.3183 32.6243 48.6494 31.2569L67.6366 48.429C67.6366 48.648 67.6366 48.8611 67.6366 49.0802L67.678 49.536C67.6898 49.6839 67.7076 49.8378 67.743 49.9858L67.8317 50.4298L67.9677 50.8678C68.009 51.0158 68.0741 51.152 68.1391 51.2881C68.2041 51.4242 68.2573 51.5663 68.3401 51.6906C68.5056 51.9451 68.6534 52.1997 68.8603 52.4187C69.2327 52.8804 69.7174 53.2237 70.1962 53.5434C69.3095 52.8035 68.6357 51.8208 68.4524 50.7376L68.3874 50.3351L68.3696 49.9207V49.5123L68.3933 49.1038C68.4642 48.5533 68.5529 48.0088 68.7125 47.4701C69.0022 46.3928 69.4159 45.3391 69.8534 44.2855C70.2967 43.2318 70.7637 42.1782 71.2248 41.1068C72.1411 38.9699 73.0278 36.756 73.613 34.3823C73.9027 33.1985 74.1391 31.9732 74.2337 30.7182C74.3224 29.6528 74.3283 28.5695 74.2573 27.4744C75.0436 26.3438 74.5115 24.1951 74.0918 22.7212L77.3904 22.2476L76.6928 23.982L82.0012 20.8625L81.9894 20.8566ZM34.7932 17.4943C36.2592 18.7019 35.4198 20.6198 35.4198 20.6198C35.4198 20.6198 35.3784 20.673 35.3134 20.7618C34.8818 20.6553 34.3912 20.4777 33.8592 20.2232C35.3902 19.7023 34.7932 17.4943 34.7932 17.4943ZM60.1469 5.24714L60.2474 5.65557C60.4307 6.22975 60.6494 6.79802 60.9213 7.33076C61.4474 8.40809 62.0859 9.40846 62.7302 10.3792C63.3805 11.35 64.0484 12.303 64.6928 13.2501C65.9874 15.1443 67.1992 17.0504 68.1154 19.0334C68.3696 19.5839 68.6002 20.1403 68.8071 20.6967C67.3647 21.1229 66.5076 22.0463 66.2179 22.4133L65.5263 22.514C64.1194 22.2417 62.1805 20.9927 60.3598 20.679C58.273 20.3179 54.4484 21.6853 54.4484 21.6853C52.5449 20.9749 50.7065 20.7855 49.1696 20.8092L60.1469 5.25898V5.24714ZM70.7164 30.6413C70.7874 31.6949 70.7401 32.7723 70.6396 33.8555C70.4327 36.0279 69.9125 38.2299 69.3214 40.4438C69.0258 41.5507 68.7066 42.6695 68.4169 43.8001C68.1273 44.9366 67.8613 46.0909 67.7135 47.2748C67.678 47.5293 67.6603 47.7897 67.6425 48.0502L48.7203 30.9313C48.7617 30.736 48.7971 30.5407 48.8326 30.3394C51.6287 30.3572 54.744 29.2621 55.8435 28.83C57.1854 28.3031 57.9065 29.3745 59.9814 29.3094C62.0563 29.2443 66.6553 27.1666 66.6553 27.1666C67.5598 27.871 68.9135 28.3386 70.4327 28.4215C70.5687 29.1437 70.6632 29.8836 70.7105 30.6294L70.7164 30.6413Z" fill="#FF5069"/>
<path d="M58.5875 74.8033C57.2419 74.8033 56.055 74.6441 55.0331 74.3384C54.0112 74.0263 53.1416 73.4531 52.4244 72.6252C51.7072 71.7973 51.174 70.6063 50.8122 69.0587C50.4504 67.5111 50.2664 65.5049 50.2664 63.0274C50.2664 60.55 50.4568 58.6839 50.8376 57.1554C51.2184 55.6269 51.777 54.4423 52.5006 53.6016C53.2241 52.7609 54.1064 52.175 55.141 51.8438C56.1756 51.5127 57.3434 51.3471 58.651 51.3471C59.6855 51.3471 60.6567 51.4044 61.5516 51.519C62.4529 51.6337 63.2653 51.7674 63.9889 51.9266C64.7125 52.0795 65.3218 52.2514 65.8232 52.4425V56.0281C65.4488 55.9453 64.9473 55.8625 64.319 55.7797C63.6843 55.697 62.967 55.6269 62.1609 55.5759C61.3549 55.525 60.5043 55.4995 59.6157 55.4995C58.7271 55.4995 58.0035 55.6014 57.3942 55.7925C56.7849 55.9899 56.2962 56.3529 55.9344 56.8815C55.5726 57.4102 55.2997 58.1744 55.1283 59.1743C54.9506 60.1742 54.8617 61.4671 54.8617 63.072C54.8617 64.677 54.9379 65.8743 55.0965 66.8742C55.2552 67.8741 55.5028 68.6447 55.8582 69.1988C56.2073 69.7465 56.6897 70.135 57.299 70.3515C57.9083 70.5681 58.6827 70.6764 59.6094 70.6764C61.1835 70.6764 62.4593 70.6445 63.4431 70.5808C64.4269 70.5171 65.2203 70.4471 65.8169 70.3643V73.9181C65.2584 74.1028 64.6173 74.2684 63.8937 74.4021C63.1701 74.5358 62.3704 74.6441 61.5008 74.7142C60.6313 74.7842 59.6602 74.8224 58.5811 74.8224L58.5875 74.8033Z" fill="#333333"/>
<path d="M73.5524 74.8034C72.0608 74.8034 70.8929 74.364 70.0424 73.4787C69.1919 72.5935 68.7666 71.3452 68.7666 69.7211V57.8815H73.3619V68.3518C73.3619 69.2881 73.5841 69.9122 74.0284 70.237C74.4727 70.5618 75.0566 70.721 75.7802 70.721C76.3578 70.721 76.9544 70.6128 77.5638 70.3962C78.1731 70.1797 78.719 69.8804 79.195 69.511V57.8879H83.8221V74.6187H80.0011L79.195 72.9055C78.4524 73.4023 77.5892 73.8481 76.618 74.2302C75.6469 74.6124 74.6187 74.8098 73.546 74.8098L73.5524 74.8034Z" fill="#333333"/>
<path d="M87.3059 82V57.8877H91.1586L91.9013 59.4736C92.2948 59.1615 92.7264 58.8685 93.2024 58.5883C93.6785 58.3081 94.1989 58.0788 94.7575 57.9005C95.316 57.7222 95.9063 57.633 96.5283 57.633C97.5439 57.633 98.4261 57.8304 99.1815 58.2253C99.9368 58.6202 100.552 59.1934 101.028 59.9385C101.505 60.6837 101.854 61.5944 102.082 62.6643C102.311 63.7343 102.425 64.9316 102.425 66.2627C102.425 68.046 102.247 69.5872 101.898 70.8737C101.549 72.1602 100.94 73.141 100.083 73.8161C99.2259 74.4912 98.039 74.8287 96.5283 74.8287C95.7413 74.8287 94.9415 74.7332 94.1228 74.5485C93.304 74.3638 92.5677 74.09 91.9013 73.7397V81.9936H87.3059V82ZM95.0368 71.0329C95.5128 71.0329 95.9698 70.9056 96.4014 70.6444C96.833 70.3833 97.1821 69.912 97.4423 69.2242C97.7026 68.5364 97.8295 67.5556 97.8295 66.2627C97.8295 64.9698 97.7089 64.0336 97.4741 63.3203C97.2392 62.607 96.9092 62.0975 96.4966 61.7918C96.084 61.4925 95.5953 61.3396 95.0368 61.3396C94.3957 61.3396 93.8054 61.4415 93.2659 61.6517C92.7264 61.8619 92.2694 62.0657 91.9013 62.2758V70.2177C92.3138 70.4661 92.8026 70.6636 93.3611 70.81C93.9197 70.9565 94.4782 71.0266 95.0368 71.0266V71.0329Z" fill="#333333"/>
<path d="M106.03 55.4232C105.599 55.4232 105.376 55.213 105.376 54.7991V51.7484C105.376 51.3153 105.592 51.0924 106.03 51.0924H109.572C109.756 51.0924 109.902 51.1561 110.004 51.2771C110.105 51.4045 110.162 51.5573 110.162 51.742V54.7927C110.162 55.2067 109.965 55.4168 109.572 55.4168H106.03V55.4232ZM105.472 74.6124V57.8815H110.067V74.6124H105.472Z" fill="#333333"/>
<path d="M119.074 74.8033C117.772 74.8033 116.674 74.5294 115.779 73.9753C114.891 73.4276 114.224 72.5296 113.774 71.2941C113.329 70.0585 113.107 68.4345 113.107 66.4156C113.107 64.3967 113.298 62.658 113.685 61.3715C114.066 60.085 114.713 59.136 115.627 58.5374C116.535 57.9323 117.791 57.633 119.385 57.633C120.153 57.633 120.908 57.7094 121.65 57.8686C122.393 58.0279 123.06 58.2062 123.637 58.4164V50.8439H128.264V74.6186H124.38L123.637 73.0264C123.288 73.3576 122.856 73.6633 122.349 73.9307C121.841 74.1982 121.308 74.4148 120.749 74.5676C120.191 74.7205 119.632 74.8033 119.074 74.8033ZM120.686 71.0966C121.308 71.0966 121.873 70.9947 122.38 70.7846C122.888 70.5744 123.307 70.3706 123.637 70.1604V61.7472C123.225 61.6008 122.787 61.4543 122.336 61.3142C121.879 61.1677 121.397 61.0976 120.876 61.0976C120.108 61.0976 119.492 61.2314 119.029 61.5052C118.566 61.7727 118.229 62.2822 118.02 63.0146C117.81 63.7534 117.709 64.817 117.709 66.2054C117.709 67.4919 117.804 68.4982 118.001 69.2115C118.198 69.9248 118.515 70.4215 118.947 70.689C119.378 70.9565 119.962 71.0966 120.686 71.0966Z" fill="#333333"/>
<path d="M130.467 74.6187L137.671 51.5636H143.478L150.683 74.6187H145.903L144.443 69.7911H136.617L135.189 74.6187H130.467ZM137.703 65.645H143.352L140.527 55.5186L137.703 65.645Z" fill="#333333"/>
<path d="M152.979 74.6187V57.8879H156.52L157.574 60.4418C158.177 59.6711 158.85 59.0215 159.612 58.4802C160.367 57.9388 161.262 57.6713 162.296 57.6713C162.525 57.6713 162.76 57.6841 162.995 57.7032C163.229 57.7223 163.458 57.7669 163.661 57.8305V62.5689C163.35 62.5307 163.026 62.4925 162.684 62.4607C162.341 62.4288 162.017 62.4161 161.706 62.4161C161.103 62.4161 160.564 62.4861 160.075 62.6199C159.586 62.7536 159.142 62.9511 158.742 63.2122C158.336 63.4733 157.949 63.8108 157.58 64.2248V74.6314H152.985L152.979 74.6187Z" fill="#333333"/>
<path d="M166.112 74.6187V57.8879H169.654L170.707 60.4418C171.31 59.6711 171.983 59.0215 172.745 58.4802C173.5 57.9388 174.395 57.6713 175.429 57.6713C175.658 57.6713 175.893 57.6841 176.128 57.7032C176.362 57.7223 176.591 57.7669 176.794 57.8305V62.5689C176.483 62.5307 176.159 62.4925 175.817 62.4607C175.474 62.4288 175.15 62.4161 174.839 62.4161C174.236 62.4161 173.697 62.4861 173.208 62.6199C172.719 62.7536 172.275 62.9511 171.875 63.2122C171.469 63.4733 171.082 63.8108 170.714 64.2248V74.6314H166.118L166.112 74.6187Z" fill="#333333"/>
<path d="M186.392 74.7714C185.028 74.7714 183.853 74.6313 182.882 74.3511C181.911 74.0709 181.118 73.5996 180.508 72.9308C179.899 72.2621 179.455 71.3832 179.176 70.2814C178.896 69.1796 178.757 67.8167 178.757 66.199C178.757 64.4986 178.896 63.0911 179.176 61.9765C179.455 60.8683 179.899 59.9958 180.508 59.3589C181.118 58.7284 181.917 58.2762 182.901 58.0215C183.885 57.7604 185.047 57.633 186.392 57.633C187.738 57.633 188.956 57.7667 189.934 58.0406C190.905 58.3081 191.698 58.7603 192.308 59.3972C192.917 60.034 193.361 60.9066 193.641 62.0147C193.92 63.1293 194.06 64.524 194.06 66.2054C194.06 67.8868 193.926 69.2561 193.653 70.3642C193.387 71.4788 192.949 72.3513 192.352 72.9945C191.749 73.6378 190.962 74.0963 189.978 74.3638C188.995 74.6313 187.801 74.7714 186.392 74.7714ZM186.392 71.0966C186.951 71.0966 187.42 71.0457 187.808 70.9438C188.195 70.8419 188.499 70.6253 188.741 70.3069C188.982 69.9885 189.16 69.4917 189.287 68.8293C189.413 68.167 189.471 67.2945 189.471 66.2118C189.471 65.1291 189.407 64.2311 189.287 63.5815C189.16 62.9255 188.982 62.4414 188.741 62.1166C188.499 61.7982 188.195 61.5816 187.808 61.4797C187.427 61.3778 186.957 61.3269 186.392 61.3269C185.827 61.3269 185.396 61.3778 185.009 61.4797C184.628 61.5816 184.31 61.7982 184.063 62.1166C183.815 62.4414 183.631 62.9255 183.517 63.5815C183.403 64.2374 183.346 65.1163 183.346 66.2118C183.346 67.3072 183.403 68.167 183.517 68.8293C183.631 69.4917 183.809 69.9885 184.063 70.3069C184.31 70.6317 184.628 70.8419 185.009 70.9438C185.389 71.0457 185.853 71.0966 186.392 71.0966Z" fill="#333333"/>
<path d="M199.492 74.6187L195.081 57.8879H199.835L202.476 70.3516L205.77 57.8879H209.559L212.853 70.3516L215.246 57.8879H220L215.652 74.6187H210.562L207.579 64.4286L204.507 74.6187H199.505H199.492Z" fill="#333333"/>
</svg>
