<svg xmlns="http://www.w3.org/2000/svg" viewBox="0 0 82 81"><defs><style>.cls-1{fill:#f0526a;}</style></defs><g id="Layer_2" data-name="Layer 2"><g id="Layer_1-2" data-name="Layer 1"><path class="cls-1" d="M82,20.86l-6-1.5,1.16,1.46-3.55.51a1.42,1.42,0,0,0-1-.41l0-.12a23.1,23.1,0,0,0-1.79-3.25A44.08,44.08,0,0,0,66.27,12c-.79-.86-1.58-1.69-2.34-2.55A26.23,26.23,0,0,1,61.8,6.82,12.27,12.27,0,0,1,61,5.38L60.81,5l-.08-.18-.06-.2-.12-.4-.07-.4A4.76,4.76,0,0,1,61.21.59a5.46,5.46,0,0,0-.89,1.51,4.77,4.77,0,0,0-.26.86c0,.14,0,.29-.05.45a2.23,2.23,0,0,0,0,.45v.46l.06.45s0,.06,0,.1l-11.25,16-.66,0c.6-.43.17-1.5.78-1.71s.21-1,.21-1c.39-.11-.2-1.2-.2-1.2.88-.08,2-1.05,1.43-1.22a3.78,3.78,0,0,1-1.3-3.71,3.7,3.7,0,0,0-.33-2.85c2,.91,2.41-1,2.41-1C49.45,9,48.7,8,48.7,8c1.58-.12,1.52-1.14,1.24-2.31s-1.68-1-1.68-1a4.6,4.6,0,0,0-.77-2.07,1.31,1.31,0,0,0-1.84-.3A2.75,2.75,0,0,0,43.72.15,2,2,0,0,0,41.2,1,4.69,4.69,0,0,0,36.61.38c-2.47,1.1-2.25,3-2.25,3C31,3.13,31,5.9,31,5.9c-1,1.12.29,2.19.29,2.19s-1.64-.25-1.86,2,1.19,2.54,1.19,2.54a1.89,1.89,0,0,0,.87,2.86c-.23,3.12,2.34,2.77,2.34,2.77a2.29,2.29,0,0,1-.09,1.89,17.71,17.71,0,0,1-8.32-9.34C23.85,6.43,18.55,9.33,13,17c-1.12,1.55.57,3.5,2,2.53-.61.85-1.23,1.79-1.85,2.82-1,1.59,1,3.35,2.23,2l1.52-1.61-.81,1.45c-.86,1.52.86,3.19,2.14,2.09l1.41-1.22-.45,1.16c-.63,1.63,1.27,3,2.39,1.73l.48-.55a1.46,1.46,0,0,0,2.66,1.06L25,28l-.07,1.07a1.51,1.51,0,0,0,1.72,1.67,2.76,2.76,0,0,0,0,.86,3.21,3.21,0,0,0,1.26,2,6.5,6.5,0,0,0-.14.69c-.65,4.67-4.38,5-6,7.72a6.29,6.29,0,0,0-.67,6c-1.31,1.58-2.65,3.73-2.53,5.81,0,0-.31-1.56-2.91-2.72s-4.5.75-5.92-1.07-3.18-1.43-4,.16S.54,53.15.77,54.57c0,0-1.21.59-.59,1.35s1.58-.1,1.58-.1,0,1.75,1.36,1.49,3.31-3.07,5.75-2.09,7.27,8.53,11.13,8.3c3.4-.2,9.56-7,11.05-9.69,1,2.2,3.07,5.91,6.05,6.85,0,0-1.77-.3-4,2s-1,5.07-3.51,5.84-2.78,2.8-1.45,4.33,1,6.62,2.59,7c0,0,.13,1.53,1.19,1.17s.52-1.72.52-1.72,1.87.67,2.13-.84-1.92-4.74.11-6.93S46.57,67.19,47.88,63,43,47.5,41.34,46.72c4.87-3.3,5.4-12,5.4-12a6.81,6.81,0,0,0,1.91-3.5l19,17.17v.65l0,.46a3.71,3.71,0,0,0,.06.45l.09.44.14.44a2.17,2.17,0,0,0,.17.42,3,3,0,0,0,.2.4,4.81,4.81,0,0,0,.52.73,5.75,5.75,0,0,0,1.34,1.12,4.84,4.84,0,0,1-1.75-2.8l-.06-.4,0-.42v-.41l0-.41a10.21,10.21,0,0,1,.32-1.63,26.83,26.83,0,0,1,1.14-3.18c.45-1.06.91-2.11,1.37-3.18a42.5,42.5,0,0,0,2.39-6.73,22,22,0,0,0,.65-6.91c.78-1.13.25-3.27-.17-4.75l3.3-.47L76.69,24,82,20.86Zm-47.2-3.37a2.77,2.77,0,0,1,.63,3.13l-.11.14a6.92,6.92,0,0,1-1.45-.54C35.39,19.7,34.79,17.49,34.79,17.49ZM60.15,5.25l.1.41a11,11,0,0,0,.67,1.67,27.84,27.84,0,0,0,1.81,3.05c.65,1,1.32,1.92,2,2.87A40.46,40.46,0,0,1,68.12,19c.25.55.48,1.11.69,1.67a5.26,5.26,0,0,0-2.59,1.71l-.69.1c-1.41-.27-3.35-1.52-5.17-1.83-2.09-.36-5.91,1-5.91,1a14.33,14.33,0,0,0-5.28-.88l11-15.55ZM70.72,30.64a20.5,20.5,0,0,1-.08,3.22,41.23,41.23,0,0,1-1.32,6.58c-.29,1.11-.61,2.23-.9,3.36a28.83,28.83,0,0,0-.71,3.47c0,.26,0,.52-.07.78L48.72,30.93c0-.19.08-.39.11-.59a21.06,21.06,0,0,0,7-1.51c1.35-.53,2.07.54,4.14.48s6.68-2.14,6.68-2.14a6.82,6.82,0,0,0,3.77,1.25,17.79,17.79,0,0,1,.28,2.21Z"/></g></g></svg>