<svg width="39" height="39" viewBox="0 0 39 39" fill="none" xmlns="http://www.w3.org/2000/svg">
<path d="M37.7453 1.12461C37.7317 1.11326 37.7136 1.10418 37.7045 1.09284C37.0918 0.489222 36.2431 0.250952 35.4579 0.380299L26.3765 0.498299C24.9401 0.518722 23.7918 1.69645 23.81 3.13288C23.8281 4.56476 24.9151 5.63357 26.4423 5.69711L29.4831 5.65853L25.0331 10.1085C22.3872 8.15695 19.2012 7.10176 15.8495 7.10176C11.7059 7.10176 7.80963 8.71518 4.88005 11.6448C-1.16518 17.6923 -1.16518 27.5339 4.88005 33.5814C7.80963 36.511 11.7059 38.1244 15.8495 38.1244C19.9909 38.1244 23.8894 36.511 26.819 33.5814C32.1744 28.2215 32.7939 19.8866 28.6593 13.8482L33.3317 9.18945V12.591C33.3317 14.0275 34.4981 15.1893 35.9322 15.1893C37.3732 15.1893 38.5327 14.0252 38.5327 12.591V2.96949C38.5327 2.27964 38.24 1.61249 37.7453 1.12461ZM23.1428 29.9053C19.2488 33.7993 12.457 33.7993 8.55848 29.9053C4.5374 25.8865 4.5374 19.342 8.55848 15.3209C10.5077 13.3739 13.0969 12.3006 15.8518 12.3006C18.6089 12.3006 21.1936 13.3739 23.1474 15.3209C27.1662 19.3397 27.1662 25.8865 23.1428 29.9053Z" fill="white"/>
</svg>
