<svg width="15" height="16" viewBox="0 0 15 16" fill="none" xmlns="http://www.w3.org/2000/svg">
<path d="M4.53725 2.51776V10.7996C4.05534 10.3697 3.4203 10.108 2.72518 10.108C1.22252 10.108 0 11.3305 0 12.8332C0 14.3359 1.22252 15.5584 2.72518 15.5584C4.22599 15.5584 5.44724 14.339 5.45034 12.8389H5.4504V6.1831L13.5565 4.12827V8.60116C13.0746 8.17127 12.4395 7.90954 11.7444 7.90954C10.2417 7.90954 9.01923 9.13206 9.01923 10.6347C9.01923 12.1374 10.2417 13.3599 11.7444 13.3599C13.2471 13.3599 14.4696 12.1374 14.4696 10.6347V0L4.53725 2.51776Z" fill="white"/>
</svg>
