<svg width="18" height="18" viewBox="0 0 18 18" fill="none" xmlns="http://www.w3.org/2000/svg">
<path d="M14.5893 16.0405L9.89783 12.6319L17.7586 6.92063C17.9159 7.58589 17.9996 8.27928 17.9996 8.9919C17.9996 11.8441 16.6657 14.3903 14.5893 16.0405Z" fill="#FF5069"/>
<path d="M13.6762 16.6799C12.3128 17.5122 10.7119 17.9922 9.00098 17.9922C7.16223 17.9922 5.45082 17.4375 4.02441 16.4872L5.81725 10.9699L13.6762 16.6799Z" fill="#FF5069"/>
<path d="M3.13388 15.8119C1.21624 14.1602 0 11.7155 0 8.99192C0 8.15502 0.115243 7.34463 0.329943 6.5753H6.13529L3.13388 15.8119Z" fill="#FF5069"/>
<path d="M0.696899 5.52013C2.01179 2.3867 5.0505 0.149172 8.61993 2.86102e-06L10.4135 5.52013H0.696899Z" fill="#FF5069"/>
<path d="M9.73645 0.0219688C13.2749 0.309584 16.2408 2.65269 17.4356 5.85249L12.7395 9.26442L9.73645 0.0219688Z" fill="#FF5069"/>
</svg>
