<svg width="17" height="15" viewBox="0 0 17 15" fill="none" xmlns="http://www.w3.org/2000/svg">
<path d="M15.9071 7.45491L12.9428 11.1987C12.6504 11.5686 12.2538 11.7761 11.8401 11.7761H9.35696V15H3.37261V13.4563C3.37261 12.945 3.0445 12.53 2.63961 12.53C2.23472 12.53 1.90611 12.945 1.90611 13.4563V15H0V13.431C0 10.341 1.98239 7.83528 4.42885 7.83528H11.1941L13.7012 4.66818C14.3105 3.89817 15.2977 3.89879 15.907 4.66818C16.5158 5.43757 16.5158 6.6849 15.9071 7.45491Z" fill="#FF5069"/>
<path d="M7.49969 0H7.49219C5.61324 0.00409214 4.09094 1.5291 4.09094 3.40943C4.09094 5.28909 5.61324 6.81409 7.49219 6.81818H7.49969C9.38274 6.81818 10.9091 5.29181 10.9091 3.40943C10.9092 1.52637 9.38281 0 7.49969 0Z" fill="#FF5069"/>
</svg>
