<svg width="16" height="16" viewBox="0 0 16 16" fill="none" xmlns="http://www.w3.org/2000/svg">
<path d="M15.4992 14.7699C15.233 15.0234 14.8773 15.1611 14.5098 15.1531C14.1424 15.1451 13.793 14.9921 13.538 14.7273C10.241 11.291 7.06896 7.7381 7.06896 7.7381C6.91675 7.56584 6.7258 7.43221 6.51183 7.3482C6.29786 7.2642 6.06699 7.23222 5.83825 7.25491C4.73828 7.36008 3.43082 6.85985 2.39907 5.82808C0.832962 4.25913 0.491886 2.05919 1.64017 0.910905C2.78846 -0.237383 4.99124 0.103693 6.55735 1.6698C7.5891 2.70155 8.08934 4.00901 7.98418 5.10898C7.96241 5.33765 7.9948 5.56824 8.07875 5.78206C8.1627 5.99588 8.29583 6.18691 8.46737 6.33969C10.5926 8.22861 13.6623 11.0839 15.4566 12.8088C15.5884 12.9346 15.694 13.0852 15.7675 13.252C15.841 13.4187 15.8808 13.5983 15.8848 13.7805C15.8887 13.9627 15.8567 14.1438 15.7906 14.3136C15.7244 14.4834 15.6254 14.6385 15.4992 14.7699Z" fill="#FF5069"/>
</svg>
