<svg width="18" height="14" viewBox="0 0 18 14" fill="none" xmlns="http://www.w3.org/2000/svg">
<path fill-rule="evenodd" clip-rule="evenodd" d="M15.7501 14H2.25039C1.00688 14 0 12.9563 0 11.6666C0 10.3768 2.27461 9.33252 2.25039 9.33252L7.87525 5.44446V4.66511C7.87525 4.02191 8.37847 3.49953 9.00134 3.49953C9.62209 3.49953 10.1252 2.97709 10.1252 2.33392C10.1252 1.68795 9.62209 1.16554 9.00134 1.16554C8.37847 1.16554 7.87525 1.68795 7.87525 2.33392H6.75028C6.75028 1.04416 7.75772 0 9.00134 0C10.2417 0 11.2492 1.04416 11.2492 2.33392C11.2492 3.21755 10.7668 3.97695 10.0682 4.37346C10.0923 4.46968 10.1252 4.56142 10.1252 4.66515V5.44216L15.7501 9.33255C15.7282 9.33255 18 10.3769 18 11.6666C18 12.9564 16.9938 14 15.7501 14ZM14.0626 10.5009L9.00134 6.99914L3.93785 10.5009C3.93785 10.5009 3.37437 10.7608 3.37437 11.0833C3.37437 11.4045 3.62809 11.6666 3.93785 11.6666H14.0626C14.3725 11.6666 14.6251 11.4045 14.6251 11.0833C14.6251 10.7608 14.0626 10.5009 14.0626 10.5009Z" fill="#FF5069"/>
</svg>
