<svg width="18" height="18" viewBox="0 0 18 18" fill="none" xmlns="http://www.w3.org/2000/svg">
<path d="M9.32893 10.2294L10.9263 11.1519C9.97267 13.2642 9.87241 15.6634 10.6465 17.8479C10.1034 17.9495 9.55203 18.0004 8.99955 18C7.72431 18.0021 6.46333 17.732 5.30073 17.208L9.32893 10.2294ZM12.4941 12.0582L16.3045 14.2578C15.3119 15.6355 13.951 16.7055 12.378 17.3448C11.7789 15.727 11.7814 13.9478 12.3852 12.3318L12.4941 12.0582ZM6.17369 8.40779L7.77111 9.32939L3.74291 16.3044C2.25286 15.2311 1.12573 13.7288 0.512074 11.9979C2.68665 11.5963 4.6366 10.4064 5.9883 8.65619L6.17369 8.40779ZM17.9145 7.75439C17.9712 8.16209 18 8.57789 18 8.99999C18.002 10.2753 17.732 11.5364 17.208 12.699L13.3958 10.4985C14.4691 9.0818 16.0293 8.11313 17.775 7.77959L17.9145 7.75439ZM0.79286 5.3019L4.60417 7.50239C3.50117 8.95805 1.88564 9.93941 0.0854958 10.2474C0.0285107 9.83402 -5.39209e-05 9.41723 7.64113e-08 8.99999C7.64113e-08 7.68149 0.283486 6.4296 0.79196 5.301L0.79286 5.3019ZM14.2571 1.69471C15.7471 2.76797 16.8742 4.27037 17.4879 6.0012C15.313 6.4036 13.3628 7.5941 12.0108 9.34469L11.8263 9.59309L10.2289 8.67059L14.2571 1.69561V1.69471ZM8.99955 6.48606e-06C10.318 6.48606e-06 11.5698 0.283506 12.6984 0.792006L8.67016 7.77059L7.07274 6.849C8.02687 4.73618 8.12713 2.33626 7.35263 0.151206C7.89575 0.0499655 8.44706 -0.000659514 8.99955 6.48606e-06ZM5.62202 0.657006C6.22022 2.27502 6.21703 4.05414 5.61302 5.67L5.50502 5.9427L1.69461 3.7422C2.64878 2.41828 3.94379 1.37762 5.44202 0.730806L5.62202 0.657006Z" fill="white"/>
</svg>
